<?xml version="1.0" standalone="no"?>
<!DOCTYPE svg PUBLIC "-//W3C//DTD SVG 20010904//EN"
 "http://www.w3.org/TR/2001/REC-SVG-20010904/DTD/svg10.dtd">
<svg version="1.0" xmlns="http://www.w3.org/2000/svg"
 width="1024.000000pt" height="1024.000000pt" viewBox="0 0 1024.000000 1024.000000"
 preserveAspectRatio="xMidYMid meet">
<metadata>
Created by potrace 1.14, written by Peter Selinger 2001-2017
</metadata>
<g transform="translate(0.000000,1024.000000) scale(0.100000,-0.100000)"
fill="#000000" stroke="none">
<path d="M171 8235 c4 -3 17 -8 29 -10 12 -2 25 -7 29 -11 6 -6 -13 -4 -134
12 -28 4 -45 2 -45 -4 0 -6 17 -9 39 -7 32 2 38 0 34 -12 -3 -8 -9 -10 -12 -5
-3 5 -23 8 -44 7 -23 -2 -44 3 -52 12 -13 13 -15 -497 -15 -4101 l0 -4116
5120 0 5120 0 0 4103 c0 2256 -4 4108 -8 4114 -4 7 -18 10 -30 8 -12 -3 -32
-7 -44 -10 -12 -2 -26 1 -30 8 -6 9 -8 8 -8 -3 0 -13 -1 -13 -10 0 -8 12 -11
13 -19 1 -7 -11 -9 -11 -14 0 -4 10 -6 10 -6 2 -1 -8 -14 -13 -33 -13 -25 0
-29 3 -18 10 11 7 7 10 -17 10 -20 0 -33 -5 -33 -12 0 -10 -3 -9 -9 1 -6 9
-10 10 -12 2 -5 -14 -59 -25 -59 -12 0 5 6 11 12 14 7 2 9 8 5 13 -4 5 -12 2
-17 -6 -9 -13 -10 -13 -10 0 0 11 -2 12 -8 3 -5 -7 -18 -10 -32 -7 -63 13 -74
15 -69 9 4 -3 17 -8 29 -10 12 -2 25 -7 29 -11 6 -6 -21 -3 -136 12 -26 4 -43
2 -43 -4 0 -6 17 -9 39 -7 32 2 38 0 34 -12 -3 -8 -9 -11 -12 -6 -7 10 -108 9
-156 -2 -16 -3 -27 -3 -23 0 5 6 28 12 51 14 4 1 7 6 7 11 0 6 -10 8 -22 6
-13 -3 -34 -7 -48 -10 -14 -3 -27 0 -32 7 -6 9 -8 8 -8 -3 0 -13 -1 -13 -10 0
-8 12 -11 13 -19 1 -7 -11 -9 -11 -14 0 -4 10 -6 10 -6 2 -1 -8 -14 -13 -33
-13 -25 0 -29 3 -18 10 11 7 7 10 -17 10 -20 0 -33 -5 -33 -12 0 -10 -3 -9 -9
1 -6 9 -10 10 -12 2 -5 -14 -59 -25 -59 -12 0 5 6 11 13 14 6 2 8 8 4 13 -4 5
-12 2 -17 -6 -9 -13 -10 -13 -10 0 0 11 -2 12 -8 3 -5 -7 -18 -10 -32 -7 -63
13 -74 15 -69 9 4 -3 17 -8 29 -10 12 -2 25 -7 29 -11 6 -6 -13 -4 -134 12
-28 4 -45 2 -45 -4 0 -6 17 -9 39 -7 32 2 38 0 34 -12 -3 -8 -9 -11 -12 -6 -7
10 -108 9 -156 -2 -16 -3 -27 -3 -23 0 5 6 28 12 51 14 4 1 7 6 7 11 0 6 -10
8 -22 6 -13 -3 -34 -7 -48 -10 -14 -3 -27 0 -32 7 -6 9 -8 8 -8 -3 0 -13 -1
-13 -10 0 -8 12 -11 13 -19 1 -7 -11 -9 -11 -14 0 -4 10 -6 10 -6 2 -1 -8 -14
-13 -33 -13 -25 0 -29 3 -18 10 11 7 7 10 -17 10 -20 0 -33 -5 -33 -12 0 -10
-3 -9 -9 1 -6 9 -10 10 -12 2 -5 -14 -59 -25 -59 -12 0 5 6 11 12 14 7 2 9 8
5 13 -4 5 -12 2 -17 -6 -9 -13 -10 -13 -10 0 0 11 -2 12 -8 3 -5 -7 -18 -10
-32 -7 -63 13 -74 15 -69 9 4 -3 17 -8 29 -10 12 -2 25 -7 29 -11 6 -6 -21 -3
-136 12 -26 4 -43 2 -43 -4 0 -6 17 -9 39 -7 32 2 38 0 34 -12 -3 -8 -9 -11
-12 -6 -7 10 -108 9 -156 -2 -16 -3 -27 -3 -23 0 5 6 28 12 51 14 4 1 7 6 7
11 0 6 -10 8 -22 6 -13 -3 -34 -7 -48 -10 -14 -3 -27 0 -32 7 -6 9 -8 8 -8 -3
0 -13 -1 -13 -10 0 -8 12 -11 13 -19 1 -7 -11 -9 -11 -14 0 -4 10 -6 10 -6 2
-1 -8 -14 -13 -33 -13 -25 0 -29 3 -18 10 11 7 7 10 -17 10 -20 0 -33 -5 -33
-12 0 -10 -3 -9 -9 1 -6 9 -10 10 -12 2 -5 -14 -59 -25 -59 -12 0 5 6 11 13
14 6 2 8 8 4 13 -4 5 -12 2 -17 -6 -9 -13 -10 -13 -10 0 0 11 -2 12 -8 3 -5
-7 -18 -10 -32 -7 -63 13 -74 15 -69 9 4 -3 17 -8 29 -10 12 -2 25 -7 29 -11
6 -6 -13 -4 -134 12 -28 4 -45 2 -45 -4 0 -6 17 -9 39 -7 32 2 38 0 34 -12 -3
-8 -9 -11 -12 -6 -7 10 -108 9 -156 -2 -16 -3 -27 -3 -23 0 5 6 28 12 51 14 4
1 7 6 7 11 0 6 -10 8 -22 6 -13 -3 -34 -7 -48 -10 -14 -3 -27 0 -32 7 -6 9 -8
8 -8 -3 0 -13 -1 -13 -10 0 -8 12 -11 13 -19 1 -7 -11 -9 -11 -14 0 -4 10 -6
10 -6 2 -1 -8 -14 -13 -33 -13 -25 0 -29 3 -18 10 11 7 7 10 -17 10 -20 0 -33
-5 -33 -12 0 -10 -3 -9 -9 1 -6 9 -10 10 -12 2 -5 -14 -59 -25 -59 -12 0 5 6
11 13 14 6 2 8 8 4 13 -4 5 -12 2 -17 -6 -9 -13 -10 -13 -10 0 0 11 -2 12 -8
3 -5 -7 -18 -10 -32 -7 -63 13 -74 15 -69 9 4 -3 17 -8 29 -10 12 -2 25 -7 29
-11 6 -6 -13 -4 -134 12 -28 4 -45 2 -45 -4 0 -6 17 -9 39 -7 32 2 38 0 34
-12 -3 -8 -9 -11 -12 -6 -7 10 -108 9 -156 -2 -16 -3 -27 -3 -23 0 5 6 28 12
51 14 4 1 7 6 7 11 0 6 -10 8 -22 6 -13 -3 -34 -7 -48 -10 -14 -3 -27 0 -32 7
-6 9 -8 8 -8 -3 0 -13 -1 -13 -10 0 -8 12 -11 13 -19 1 -7 -11 -9 -11 -14 0
-4 10 -6 10 -6 2 -1 -8 -14 -13 -33 -13 -25 0 -29 3 -18 10 11 7 7 10 -17 10
-20 0 -33 -5 -33 -12 0 -10 -3 -9 -9 1 -6 9 -10 10 -12 2 -5 -14 -59 -25 -59
-12 0 5 6 11 13 14 6 2 8 8 4 13 -4 5 -12 2 -17 -6 -9 -13 -10 -13 -10 0 0 11
-2 12 -8 3 -5 -7 -18 -10 -32 -7 -63 13 -74 15 -69 9 4 -3 17 -8 29 -10 12 -2
25 -7 29 -11 6 -6 -13 -4 -134 12 -28 4 -45 2 -45 -4 0 -6 17 -9 39 -7 32 2
38 0 34 -12 -3 -8 -9 -11 -12 -6 -7 10 -108 9 -156 -2 -16 -3 -27 -3 -23 0 5
6 28 12 51 14 4 1 7 6 7 11 0 6 -10 8 -22 6 -13 -3 -34 -7 -48 -10 -14 -3 -27
0 -32 7 -6 9 -8 8 -8 -3 0 -13 -1 -13 -10 0 -8 12 -11 13 -19 1 -7 -11 -9 -11
-14 0 -4 10 -6 10 -6 2 -1 -8 -14 -13 -33 -13 -25 0 -29 3 -18 10 11 7 7 10
-17 10 -17 0 -34 -6 -36 -12 -4 -10 -6 -10 -6 0 -1 10 -5 10 -17 -2 -8 -9 -19
-14 -24 -11 -5 3 -11 1 -15 -5 -3 -5 -1 -10 6 -10 7 0 10 -3 7 -6 -4 -3 4 -21
17 -41 55 -79 70 -139 70 -273 0 -102 -4 -135 -21 -180 -12 -31 -174 -319
-361 -640 -187 -322 -575 -990 -863 -1485 -287 -495 -572 -984 -631 -1087 -60
-103 -112 -194 -115 -202 -5 -14 78 -16 773 -18 l778 -3 50 -29 c28 -16 91
-70 141 -120 130 -130 200 -257 240 -434 29 -129 22 -363 -12 -397 -14 -13
-268 -15 -2167 -15 -1812 0 -2162 3 -2218 14 -254 54 -424 296 -388 554 27
191 181 359 380 413 31 9 218 14 654 16 l610 5 186 321 c102 177 445 771 763
1319 l578 997 -200 343 c-109 189 -211 366 -226 395 -78 148 -75 328 9 480 18
33 31 65 27 70 -4 4 -3 5 2 0 11 -8 46 20 46 37 0 6 -4 6 -8 -2 -10 -15 -62
-26 -62 -13 0 5 6 11 13 14 6 2 8 8 4 13 -4 5 -12 2 -17 -6 -9 -13 -10 -13
-10 0 0 11 -2 12 -8 3 -5 -7 -18 -10 -32 -7 -63 13 -74 15 -69 9 4 -3 17 -8
29 -10 12 -2 25 -7 29 -11 6 -6 -13 -4 -134 12 -28 4 -45 2 -45 -4 0 -6 17 -9
39 -7 32 2 38 0 34 -12 -3 -8 -9 -11 -12 -6 -7 10 -108 9 -156 -2 -16 -3 -27
-3 -23 0 5 6 28 12 51 14 4 1 7 6 7 11 0 6 -10 8 -22 6 -13 -3 -34 -7 -48 -10
-14 -3 -27 0 -32 7 -6 9 -8 8 -8 -3 0 -13 -1 -13 -10 0 -8 12 -11 13 -19 1 -7
-11 -9 -11 -14 0 -4 10 -6 10 -6 2 -1 -8 -14 -13 -33 -13 -25 0 -29 3 -18 10
11 7 7 10 -17 10 -20 0 -33 -5 -33 -12 0 -10 -3 -9 -9 1 -6 9 -10 10 -12 2 -5
-14 -59 -25 -59 -12 0 5 6 11 13 14 6 2 8 8 4 13 -4 5 -12 2 -17 -6 -9 -13
-10 -13 -10 0 0 11 -2 12 -8 3 -5 -7 -18 -10 -32 -7 -63 13 -74 15 -69 9 4 -3
17 -8 29 -10 12 -2 25 -7 29 -11 6 -6 -13 -4 -134 12 -28 4 -45 2 -45 -4 0 -6
17 -9 39 -7 32 2 38 0 34 -12 -3 -8 -9 -11 -12 -6 -7 10 -108 9 -156 -2 -16
-3 -27 -3 -23 0 5 6 28 12 51 14 4 1 7 6 7 11 0 6 -10 8 -22 6 -13 -3 -34 -7
-48 -10 -14 -3 -27 0 -32 7 -6 9 -8 8 -8 -3 0 -13 -1 -13 -10 0 -8 12 -11 13
-19 1 -7 -11 -9 -11 -14 0 -4 10 -6 10 -6 2 -1 -8 -14 -13 -33 -13 -25 0 -29
3 -18 10 11 7 7 10 -17 10 -20 0 -33 -5 -33 -12 0 -10 -3 -9 -9 1 -6 9 -10 10
-12 2 -5 -14 -59 -25 -59 -12 0 5 6 11 13 14 6 2 8 8 4 13 -4 5 -12 2 -17 -6
-9 -13 -10 -13 -10 0 0 11 -2 12 -8 3 -5 -7 -18 -10 -32 -7 -63 13 -74 15 -69
9 4 -3 17 -8 29 -10 12 -2 25 -7 29 -11 6 -6 -21 -3 -136 12 -26 4 -43 2 -43
-4 0 -6 17 -9 39 -7 32 2 38 0 34 -12 -3 -8 -9 -11 -12 -6 -7 10 -108 9 -156
-2 -16 -3 -27 -3 -23 0 5 6 28 12 51 14 4 1 7 6 7 11 0 6 -10 8 -22 6 -13 -3
-34 -7 -48 -10 -14 -3 -27 0 -32 7 -6 9 -8 8 -8 -3 0 -13 -1 -13 -10 0 -8 12
-11 13 -19 1 -7 -11 -9 -11 -14 0 -4 10 -6 10 -6 2 -1 -8 -14 -13 -33 -13 -25
0 -29 3 -18 10 11 7 7 10 -17 10 -20 0 -33 -5 -33 -12 0 -10 -3 -9 -9 1 -6 9
-10 10 -12 2 -5 -14 -59 -25 -59 -12 0 5 6 11 13 14 6 2 8 8 4 13 -4 5 -12 2
-17 -6 -9 -13 -10 -13 -10 0 0 11 -2 12 -8 3 -5 -7 -18 -10 -32 -7 -63 13 -74
15 -69 9 4 -3 17 -8 29 -10 12 -2 25 -7 29 -11 6 -6 -13 -4 -134 12 -28 4 -45
2 -45 -4 0 -6 17 -9 39 -7 32 2 38 0 34 -12 -3 -8 -9 -11 -12 -6 -7 10 -108 9
-156 -2 -16 -3 -27 -3 -23 0 5 6 28 12 51 14 4 1 7 6 7 11 0 6 -10 8 -22 6
-13 -3 -34 -7 -48 -10 -14 -3 -27 0 -32 7 -6 9 -8 8 -8 -3 0 -13 -1 -13 -10 0
-8 12 -11 13 -19 1 -7 -11 -9 -11 -14 0 -4 10 -6 10 -6 2 -1 -8 -14 -13 -33
-13 -25 0 -29 3 -18 10 11 7 7 10 -17 10 -20 0 -33 -5 -33 -12 0 -10 -3 -9 -9
1 -6 9 -10 10 -12 2 -5 -14 -59 -25 -59 -12 0 5 6 11 13 14 6 2 8 8 4 13 -4 5
-12 2 -17 -6 -9 -13 -10 -13 -10 0 0 11 -2 12 -8 3 -5 -7 -18 -10 -32 -7 -63
13 -74 15 -69 9 4 -3 17 -8 29 -10 12 -2 25 -7 29 -11 6 -6 -13 -4 -134 12
-28 4 -45 2 -45 -4 0 -6 17 -9 39 -7 32 2 38 0 34 -12 -3 -8 -9 -11 -12 -6 -7
10 -108 9 -156 -2 -16 -3 -27 -3 -23 0 5 6 28 12 51 14 4 1 7 6 7 11 0 6 -10
8 -22 6 -13 -3 -34 -7 -48 -10 -14 -3 -27 0 -32 7 -6 9 -8 8 -8 -3 0 -13 -1
-13 -10 0 -8 12 -11 13 -19 1 -7 -11 -9 -11 -14 0 -4 10 -6 10 -6 2 -1 -8 -14
-13 -33 -13 -25 0 -29 3 -18 10 11 7 7 10 -17 10 -20 0 -33 -5 -33 -12 0 -10
-3 -9 -9 1 -6 9 -10 10 -12 2 -5 -14 -59 -25 -59 -12 0 5 6 11 13 14 6 2 8 8
4 13 -4 5 -12 2 -17 -6 -9 -13 -10 -13 -10 0 0 11 -2 12 -8 3 -5 -7 -18 -10
-32 -7 -63 13 -74 15 -69 9 4 -3 17 -8 29 -10 12 -2 25 -7 29 -11 6 -6 -13 -4
-134 12 -28 4 -45 2 -45 -4 0 -6 17 -9 39 -7 32 2 38 0 34 -12 -3 -8 -9 -11
-12 -6 -7 10 -108 9 -156 -2 -16 -3 -27 -3 -23 0 5 6 28 12 51 14 4 1 7 6 7
11 0 6 -10 8 -22 6 -13 -3 -34 -7 -48 -10 -14 -3 -27 0 -32 7 -6 9 -8 8 -8 -3
0 -13 -1 -13 -10 0 -8 12 -11 13 -19 1 -7 -11 -9 -11 -14 0 -4 10 -6 10 -6 2
-1 -8 -14 -13 -33 -13 -25 0 -29 3 -18 10 11 7 7 10 -17 10 -20 0 -33 -5 -33
-12 0 -10 -3 -9 -9 1 -6 9 -10 10 -12 2 -5 -14 -59 -25 -59 -12 0 5 6 11 13
14 6 2 8 8 4 13 -4 5 -12 2 -17 -6 -9 -13 -10 -13 -10 0 0 11 -2 12 -8 3 -5
-7 -18 -10 -32 -7 -63 13 -74 15 -69 9z m-21 -35 c0 -5 -4 -10 -10 -10 -5 0
-10 5 -10 10 0 6 5 10 10 10 6 0 10 -4 10 -10z m640 0 c0 -5 -4 -10 -10 -10
-5 0 -10 5 -10 10 0 6 5 10 10 10 6 0 10 -4 10 -10z m640 0 c0 -5 -4 -10 -10
-10 -5 0 -10 5 -10 10 0 6 5 10 10 10 6 0 10 -4 10 -10z m640 0 c0 -5 -4 -10
-10 -10 -5 0 -10 5 -10 10 0 6 5 10 10 10 6 0 10 -4 10 -10z m640 0 c0 -5 -4
-10 -10 -10 -5 0 -10 5 -10 10 0 6 5 10 10 10 6 0 10 -4 10 -10z m640 0 c0 -5
-4 -10 -10 -10 -5 0 -10 5 -10 10 0 6 5 10 10 10 6 0 10 -4 10 -10z m640 0 c0
-5 -4 -10 -10 -10 -5 0 -10 5 -10 10 0 6 5 10 10 10 6 0 10 -4 10 -10z m2560
0 c0 -5 -4 -10 -10 -10 -5 0 -10 5 -10 10 0 6 5 10 10 10 6 0 10 -4 10 -10z
m640 0 c0 -5 -4 -10 -10 -10 -5 0 -10 5 -10 10 0 6 5 10 10 10 6 0 10 -4 10
-10z m640 0 c0 -5 -4 -10 -10 -10 -5 0 -10 5 -10 10 0 6 5 10 10 10 6 0 10 -4
10 -10z m640 0 c0 -5 -4 -10 -10 -10 -5 0 -10 5 -10 10 0 6 5 10 10 10 6 0 10
-4 10 -10z m640 0 c0 -5 -4 -10 -10 -10 -5 0 -10 5 -10 10 0 6 5 10 10 10 6 0
10 -4 10 -10z m640 0 c0 -5 -4 -10 -10 -10 -5 0 -10 5 -10 10 0 6 5 10 10 10
6 0 10 -4 10 -10z m477 4 c-2 -3 -17 -7 -33 -10 -17 -2 -24 -1 -17 4 13 8 58
14 50 6z m-4374 -1606 c18 -29 334 -567 702 -1195 l669 -1142 625 -3 c615 -3
627 -4 692 -26 83 -27 171 -84 231 -149 237 -256 128 -669 -210 -796 -53 -20
-79 -21 -404 -25 -192 -2 -348 -5 -348 -8 0 -2 100 -176 222 -387 122 -210
233 -409 247 -442 36 -89 41 -228 11 -326 -48 -161 -160 -276 -320 -329 -55
-19 -81 -22 -172 -18 -102 4 -112 7 -191 46 -64 32 -98 57 -143 105 -61 66
-71 84 -1538 2617 l-461 795 -3 155 c-8 310 46 639 145 890 28 71 119 257 135
278 6 6 26 12 44 12 30 0 38 -6 67 -52z m-2950 -3512 c181 -54 417 -200 417
-257 0 -28 -487 -863 -535 -917 -159 -181 -446 -216 -647 -79 -113 77 -190
205 -207 344 -9 77 3 187 28 251 25 64 337 601 366 631 41 42 153 61 335 57
132 -3 168 -7 243 -30z"/>
<path d="M5290 8235 c0 -7 30 -13 34 -7 3 4 -4 9 -15 9 -10 1 -19 0 -19 -2z"/>
<path d="M6031 8233 c-1 -6 3 -14 7 -17 12 -7 38 12 29 21 -5 4 -12 1 -16 -6
-7 -11 -10 -11 -14 0 -3 9 -6 10 -6 2z"/>
<path d="M4950 8223 c0 -7 -7 -13 -15 -13 -11 0 -4 -15 22 -48 21 -27 65 -96
98 -154 33 -59 62 -105 66 -102 4 2 33 50 64 106 32 57 68 117 81 135 15 19
22 39 18 50 -4 13 -3 15 4 4 7 -9 12 -10 16 -2 4 6 4 11 -1 12 -4 0 -17 3 -28
5 -50 12 -105 15 -105 6 0 -6 17 -9 39 -7 32 2 38 0 34 -12 -3 -8 -9 -11 -12
-6 -7 10 -108 9 -156 -2 -16 -3 -27 -3 -23 0 5 6 28 12 51 14 4 1 7 6 7 11 0
6 -10 8 -22 6 -13 -3 -34 -7 -48 -10 -14 -3 -27 0 -32 7 -6 9 -8 8 -8 -3 0
-13 -1 -13 -11 0 -9 12 -12 13 -16 1 -5 -11 -7 -11 -14 0 -6 10 -9 11 -9 2z
m320 -23 c0 -5 -4 -10 -10 -10 -5 0 -10 5 -10 10 0 6 5 10 10 10 6 0 10 -4 10
-10z"/>
</g>
</svg>
